<?xml version="1.0" encoding="utf-8"?>
<!-- Generator: Adobe Illustrator 16.0.0, SVG Export Plug-In . SVG Version: 6.00 Build 0)  -->
<!DOCTYPE svg PUBLIC "-//W3C//DTD SVG 1.1//EN" "http://www.w3.org/Graphics/SVG/1.1/DTD/svg11.dtd">
<svg version="1.1" id="Layer_1" xmlns="http://www.w3.org/2000/svg" xmlns:xlink="http://www.w3.org/1999/xlink" x="0px" y="0px"
	 width="700px" height="700px" viewBox="0 0 700 700" enable-background="new 0 0 700 700" xml:space="preserve">
<g transform="translate(0.000000,700.000000) scale(0.100000,-0.100000)">
	<path fill="#787878" d="M1720,5742.998c-1.001-5-2.002-92.998-2.998-197.998L1715,5355l-365-5
		c-337.002-5-367.002-6.001-392.998-23.999C910,5293.999,900,5262.001,900,5145c0-121.001,12.002-153.999,62.998-182.002
		c28.003-15.996,73.003-18.999,392.002-22.998l360-5l2.002-195l1.997-195l135-2.998l136.001-3.003V5145v605h-135
		C1781.001,5750,1720,5747.001,1720,5742.998z"/>
	<path fill="#787878" d="M2535,5337.001c-2.998-7.002-3.999-98.003-2.998-202.002l2.998-190h1045
		c990.996,0,1047.002,1.001,1072.998,17.998C4705.996,4997.998,4720,5035,4720,5145s-14.004,147.002-67.002,182.002
		c-25.996,16.997-83.994,17.998-1070,20.996C2735,5350,2538.999,5347.998,2535,5337.001z"/>
	<path fill="#787878" d="M2810,4340v-200h-897.002c-860.996,0-900-1.001-940-18.999C912.002,4092.998,900,4062.001,900,3935
		s12.002-157.998,72.998-186.001c40-17.998,79.004-18.999,940-18.999H2810v-200v-200h135h135v605v605h-135h-135V4340z"/>
	<path fill="#787878" d="M5309.902,4602.773c-7.051-8.823-8.818-201.099-7.93-707.358l2.646-695.894l19.404-2.637
		c13.232-1.768,172.871,102.305,523.017,343.086c447.168,306.05,503.613,347.505,500.967,366.03
		c-1.768,16.753-104.951,90.84-504.502,365.142c-276.054,188.745-506.25,343.975-512.431,343.975
		C5324.902,4615.117,5315.205,4609.824,5309.902,4602.773z"/>
	<path fill="#787878" d="M3630,3935v-206.001l497.998,3.003c552.998,2.998,529.004,0,572.002,70.996
		c29.004,46.001,29.004,218.003,0,264.004c-42.998,70.996-19.004,67.998-572.002,70.996L3630,4141V3935z"/>
	<path fill="#787878" d="M1857.002,3324.003C1852.998,3320,1850,3230,1850,3122.998V2930h-417.002
		c-388.999,0-420.996-2.002-460-19.004C912.002,2882.998,900,2852.001,900,2725s12.002-157.998,72.998-185.996
		c39.004-17.002,71.001-19.004,460-19.004H1850v-200v-200.996l135,2.998l135,2.998v600v600l-127.998,2.998
		C1922.002,3329.003,1861.001,3327.001,1857.002,3324.003z"/>
	<path fill="#787878" d="M2673.999,2917.001c-1.997-7.002-2.998-97.998-1.997-202.002l2.998-190h975
		c924.004,0,977.002,0.996,1002.998,17.998c54.004,35,67.002,72.002,67.002,182.998c0,88.008-2.998,105-22.998,135
		c-49.004,73.008,18.994,69.004-1055,69.004C2868.999,2930,2677.998,2927.001,2673.999,2917.001z"/>
</g>
</svg>
