<?xml version="1.0" encoding="utf-8"?>
<!-- Generator: Adobe Illustrator 16.0.0, SVG Export Plug-In . SVG Version: 6.00 Build 0)  -->
<!DOCTYPE svg PUBLIC "-//W3C//DTD SVG 1.1//EN" "http://www.w3.org/Graphics/SVG/1.1/DTD/svg11.dtd">
<svg version="1.1" id="Layer_1" xmlns="http://www.w3.org/2000/svg" xmlns:xlink="http://www.w3.org/1999/xlink" x="0px" y="0px"
	 width="700px" height="700px" viewBox="0 0 700 700" enable-background="new 0 0 700 700" xml:space="preserve">
<g transform="translate(0.000000,700.000000) scale(0.100000,-0.100000)">
	<path fill="#12130f" d="M3070,5742.998c-1.001-5-2.002-92.998-2.998-197.998L3065,5355l-365-5
		c-337.002-5-367.002-6.001-392.998-23.999C2260,5293.999,2250,5262.001,2250,5145c0-121.001,12.002-153.999,62.998-182.002
		C2341,4947.001,2386,4943.999,2705,4940l360-5l2.002-195l1.997-195l135-2.998l136.001-3.003V5145v605h-135
		C3131,5750,3070,5747.001,3070,5742.998z"/>
	<path fill="#12130f" d="M3885,5337.001c-2.998-7.002-4.004-98.003-2.998-202.002l2.998-190h1045
		c990.996,0,1047.001,1.001,1072.998,17.998c52.998,35,67.002,72.002,67.002,182.002s-14.004,147.002-67.002,182.002
		c-25.996,16.997-83.994,17.998-1070,20.996C4085,5350,3889.003,5347.998,3885,5337.001z"/>
	<path fill="#12130f" d="M4160,4340v-200h-897.002c-860.996,0-900-1.001-940-18.999C2262.001,4092.998,2250,4062.001,2250,3935
		s12.002-157.998,72.998-186.001c40-17.998,79.004-18.999,940-18.999H4160v-200v-200h135h135v605v605h-135h-135V4340z"/>
	<path fill="#12130f" d="M1599.951,3209.208c7.051,8.818,8.818,201.094,7.93,707.354l-2.646,695.898l-19.404,2.637
		c-13.232,1.768-172.871-102.305-523.018-343.086c-447.168-306.055-503.613-347.51-500.967-366.035
		c1.768-16.748,104.951-90.84,504.502-365.137c276.055-188.75,506.25-343.975,512.432-343.975
		C1584.951,3196.865,1594.648,3202.158,1599.951,3209.208z"/>
	<path fill="#12130f" d="M4980,3935v-206.001l497.998,3.003c552.998,2.998,529.003,0,572.001,70.996
		c29.004,46.001,29.004,218.003,0,264.004c-42.998,70.996-19.004,67.998-572.001,70.996L4980,4141V3935z"/>
	<path fill="#12130f" d="M3207.001,3324.003C3202.998,3320,3200,3230,3200,3122.998V2930h-417.002
		c-388.999,0-420.996-2.002-460-19.004C2262.001,2882.998,2250,2852.001,2250,2725s12.002-157.998,72.998-185.996
		c39.004-17.002,71.001-19.004,460-19.004H3200v-200v-200.996l135,2.998l135,2.998v600v600l-127.998,2.998
		C3272.001,3329.003,3211,3327.001,3207.001,3324.003z"/>
	<path fill="#12130f" d="M4024.003,2917.001c-2.002-7.002-3.008-97.998-2.002-202.002l2.998-190h975
		c924.003,0,977.001,0.996,1002.998,17.998c54.004,35,67.002,72.002,67.002,182.998c0,88.008-2.998,105-22.998,135
		c-49.004,73.008,18.994,69.004-1055,69.004C4219.003,2930,4027.998,2927.001,4024.003,2917.001z"/>
</g>
</svg>
