<?xml version="1.0" encoding="utf-8"?>
<!-- Generator: Adobe Illustrator 24.0.0, SVG Export Plug-In . SVG Version: 6.00 Build 0)  -->
<svg version="1.1" id="Layer_1" xmlns="http://www.w3.org/2000/svg" xmlns:xlink="http://www.w3.org/1999/xlink" x="500px" y="2000px"
	 viewBox="0 0 14400 14400" style="enable-background:new 0 0 14400 14400;" xml:space="preserve">
<style type="text/css">
	.st0{fill:#ABCCBD;}
	.st1{fill:#12130F;}
	.st2{fill:#325944;}
	.st3{fill:#F0F0F0;}
</style>
<g>
	<circle class="st0" cx="6551.6" cy="7228.84" r="162.07"/>
	<path class="st1" d="M6681.65,6983.43c7.44,8.99,13.93,16.84,20.43,24.66c12.48,15,24.98,29.98,37.44,45
		c1.4,1.69,3.53,3.08,2.53,5.97c-7.29,20.9-14.53,41.81-22.17,63.84c-12.18-14.61-23.6-28.32-35.71-42.86
		c-8.04,23.22-15.82,45.68-23.59,68.14c-13.08,37.8-25.86,75.72-39.33,113.38c-10.87,30.4-39.58,49.63-70.84,48.52
		c-31.75-1.13-58.65-22.49-67.86-53.89c-9.82-33.5,4.23-69.32,34.08-86.88c29.39-17.28,67.2-11.2,90.18,14.52
		c1.02,1.14,1.91,2.41,3.88,4.92c12.15-35.12,23.83-68.86,35.49-102.6C6657.81,7052.51,6669.42,7018.85,6681.65,6983.43z
		 M6552.53,7174.96c-24.5,0.26-47.3,16.38-54.54,38.41c-1.4,4.26-1.25,7.86,3.22,9.6c4.11,1.6,6.56-0.73,8.16-4.61
		c2.26-5.49,4.92-10.76,9.05-15.11c13.55-14.27,29.71-18.83,48.37-13.43c4.31,1.25,7.73,1.01,9.13-3.68
		c1.4-4.68-1.28-6.99-5.54-8.36C6564.54,7175.9,6558.62,7175,6552.53,7174.96z"/>
	<path class="st2" d="M6683.09,7234.32c1.38-14.84-2-28.87-6.57-42.71c-1.24-3.75-2.94-7.89,2.28-9.75c5.23-1.86,7.24,1.92,8.59,6.2
		c14.14,44.72,9.37,87.28-16.59,125.97c-26.79,39.92-65.38,59.21-112.29,59.86c-24.11,0.33-46.71-7.45-68.02-18.92
		c-1.1-0.59-2.04-1.53-2.98-2.39c-2.94-2.69-4.54-5.79-1.72-9.48c2.76-3.61,5.97-1.9,8.81-0.13c10.42,6.51,21.25,11.97,33.16,15.07
		c34.65,9.03,67.27,3.83,97.45-15.48c28.09-17.97,45.97-43.85,54.79-76.71C6682.84,7255.32,6682.55,7244.84,6683.09,7234.32z"/>
	<path class="st3" d="M6557.74,7330.97c-52.23-0.33-91.96-36.41-97.7-84.05c-6.88-57.14,34.89-107.17,91.02-108.7
		c13.51-0.37,26.62,2.49,39.05,8.06c3.33,1.49,7.91,3.1,5.55,8.32c-2.14,4.75-5.96,3.31-9.76,1.73
		c-30.74-12.75-59.39-8.83-85.39,12.27c-34.7,28.16-40.9,80.61-14.2,117.11c21.29,29.11,58.06,41.16,91.97,30.14
		c0.96-0.31,1.97-0.52,2.9-0.92c3.49-1.52,6.67-1.52,7.96,2.78c1.2,4.01-1.02,6.4-4.62,7.57
		C6574.13,7328.69,6563.53,7330.92,6557.74,7330.97z"/>
	<path class="st1" d="M6552.88,7351.41c-59.25,0.05-109.13-47.05-113.7-107.42c-0.31-4.12-1-9.06,4.89-9.48
		c5.53-0.39,5.15,4.27,5.62,8.17c6.43,52.71,39.09,88.21,89.1,96.92c47.93,8.35,100.2-26.18,113.08-74.55
		c1.2-4.53,0.82-12.41,8.31-10.02c7.18,2.29,2.94,8.91,1.69,13.37C6648.09,7317.39,6603.34,7351.37,6552.88,7351.41z"/>
	<path class="st2" d="M6411.16,7221.42c-0.39-69.47,50.94-129.27,117.64-137.54c5.54-0.69,11.05-1.31,16.62-1.24
		c3.86,0.05,8.27-0.3,8.33,5.33c0.06,5.56-4.21,5.5-8.17,5.53c-23.08,0.13-44.35,6.7-64.13,18.77
		c-49.51,30.23-72.3,94.63-53.14,150.28c0.25,0.73,0.52,1.46,0.76,2.2c1.18,3.58,2.33,7.44-2.27,9.18
		c-4.42,1.68-6.36-1.48-7.68-5.26c-4.29-12.28-7.11-24.88-7.94-37.91C6410.99,7227.66,6411.16,7224.53,6411.16,7221.42z"/>
	<path class="st1" d="M6519.09,7131.09c-0.12,3.11-2.2,4.44-4.68,5.45c-20.41,8.25-36.46,21.95-48.26,40.87
		c-2.17,3.49-4.79,5.84-8.66,3.47c-3.72-2.28-2.6-5.82-0.74-8.87c13.17-21.58,31.34-37.02,54.54-46.08
		C6515.9,7124.14,6519.36,7126.77,6519.09,7131.09z"/>
</g>
<g>
	<g>
		<path class="st1" d="M6821.8,7343.89c-8.81,0-16.97-1.05-24.46-3.16c-7.5-2.1-14.2-4.8-20.11-8.08c-5.91-3.28-11-6.65-15.24-10.1
			c-4.25-3.45-7.61-6.48-10.09-9.09l19.24-33.82c2.55,2.44,5.6,5.17,9.16,8.2c3.55,3.03,7.54,5.93,11.94,8.71
			c4.41,2.78,9.18,5.05,14.32,6.82c5.14,1.77,10.61,2.65,16.4,2.65c5.41,0,10.18-0.9,14.32-2.71c4.13-1.81,7.42-4.56,9.85-8.27
			c2.43-3.7,3.65-8.29,3.65-13.76c0-4.88-0.99-9.09-2.96-12.62c-1.97-3.53-4.83-6.71-8.58-9.53c-3.75-2.82-8.35-5.59-13.8-8.33
			c-5.45-2.73-11.65-5.74-18.61-9.02c-5.18-2.52-10.11-5.41-14.78-8.65c-4.68-3.24-8.83-7-12.46-11.3
			c-3.63-4.29-6.51-9.15-8.64-14.58c-2.13-5.43-3.19-11.51-3.19-18.24c0-7.99,1.47-15.65,4.41-22.97
			c2.94-7.32,7.13-13.84,12.58-19.56c5.45-5.72,11.94-10.26,19.48-13.63c7.54-3.36,15.9-5.05,25.1-5.05
			c6.96,0,13.91,1.01,20.87,3.03c6.96,2.02,13.47,4.67,19.53,7.95c6.07,3.28,11.19,6.86,15.36,10.73l-15.65,32.06
			c-3.32-3.03-7.09-5.81-11.3-8.33c-4.21-2.52-8.69-4.54-13.45-6.06c-4.75-1.51-9.56-2.27-14.43-2.27c-5.49,0-10.14,1.05-13.97,3.16
			c-3.83,2.1-6.74,4.9-8.75,8.39c-2.01,3.49-3.01,7.38-3.01,11.67c0,3.45,0.66,6.42,1.97,8.9c1.31,2.48,3.21,4.65,5.68,6.5
			c2.47,1.85,5.45,3.6,8.93,5.24c3.48,1.64,7.3,3.39,11.48,5.24c8.96,4.12,17.08,8.2,24.34,12.24c7.26,4.04,13.49,8.52,18.66,13.44
			c5.18,4.92,9.14,10.64,11.88,17.17c2.74,6.52,4.12,14.37,4.12,23.54c0,13.3-2.92,24.7-8.75,34.2
			c-5.84,9.51-13.97,16.77-24.4,21.77C6848,7341.38,6835.79,7343.89,6821.8,7343.89z"/>
		<path class="st1" d="M6980.73,7343.89c-13.14,0-24.98-2.92-35.53-8.77c-10.55-5.85-18.9-13.92-25.04-24.23
			c-6.14-10.31-9.22-22.19-9.22-35.66c0-13.46,3.07-25.35,9.22-35.66c6.14-10.31,14.47-18.38,24.98-24.23
			c10.51-5.85,22.33-8.77,35.47-8.77c13.14,0,24.96,2.92,35.47,8.77c10.51,5.85,18.84,13.93,24.98,24.23
			c6.14,10.31,9.22,22.19,9.22,35.66c0,13.46-3.07,25.35-9.22,35.66c-6.14,10.31-14.47,18.39-24.98,24.23
			C7005.58,7340.96,6993.79,7343.89,6980.73,7343.89z M6980.73,7310.82c6.03,0,11.51-1.51,16.46-4.54
			c4.94-3.03,8.85-7.21,11.71-12.56c2.86-5.34,4.29-11.5,4.29-18.49c0-6.98-1.43-13.15-4.29-18.49c-2.86-5.34-6.76-9.53-11.71-12.56
			c-4.95-3.03-10.43-4.54-16.46-4.54c-6.11,0-11.61,1.51-16.52,4.54c-4.91,3.03-8.81,7.22-11.71,12.56
			c-2.9,5.34-4.35,11.51-4.35,18.49c0,6.99,1.45,13.15,4.35,18.49c2.9,5.34,6.8,9.53,11.71,12.56
			C6969.12,7309.3,6974.63,7310.82,6980.73,7310.82z"/>
		<path class="st1" d="M7078.23,7339.85v-129.24h35.71v14.26c4.48-5.38,10.16-9.78,17.04-13.19c6.88-3.41,14.45-5.11,22.72-5.11
			c9.04,0,17.04,2.15,24,6.44s12.4,10.31,16.35,18.05c3.94,7.74,5.91,16.74,5.91,27.01v81.79h-35.59v-73.58
			c0-9.25-2.22-16.47-6.67-21.65c-4.44-5.17-10.53-7.76-18.26-7.76c-5.26,0-9.78,1.16-13.56,3.47c-3.79,2.32-6.72,5.47-8.81,9.47
			c-2.09,4-3.13,8.52-3.13,13.57v76.48H7078.23z"/>
		<path class="st1" d="M7293.15,7409.26c-16,0-29.43-3.2-40.29-9.59c-10.86-6.4-18.8-15.74-23.82-28.02l29.1-15.27
			c3.17,5.89,7.92,10.6,14.26,14.14c6.34,3.53,13.21,5.3,20.63,5.3c6.72,0,12.62-1.45,17.68-4.35c5.06-2.9,9.02-6.96,11.88-12.18
			c2.86-5.22,4.29-11.32,4.29-18.3v-18.17c-5.18,6.65-11.36,11.82-18.55,15.52c-7.19,3.7-14.92,5.55-23.18,5.55
			c-10.74,0-20.54-2.92-29.39-8.77c-8.85-5.85-15.9-13.95-21.16-24.3c-5.26-10.35-7.88-22.21-7.88-35.59
			c0-13.13,2.57-24.86,7.71-35.21c5.14-10.35,12.17-18.51,21.1-24.49c8.93-5.97,19.11-8.96,30.55-8.96c8.35,0,16.07,1.75,23.19,5.24
			c7.11,3.49,12.98,8.35,17.62,14.58v-15.78h35.71v132.78c0,12.7-2.53,24.02-7.59,33.95c-5.06,9.93-12.73,17.73-23.01,23.41
			C7321.71,7406.42,7308.76,7409.26,7293.15,7409.26z M7295.82,7310.95c6.18,0,11.69-1.53,16.52-4.61
			c4.83-3.07,8.62-7.28,11.36-12.62c2.74-5.34,4.12-11.46,4.12-18.36c0-6.9-1.39-13.04-4.17-18.43c-2.78-5.38-6.57-9.63-11.36-12.75
			c-4.79-3.11-10.24-4.67-16.34-4.67c-6.11,0-11.54,1.56-16.29,4.67c-4.75,3.11-8.52,7.36-11.3,12.75
			c-2.78,5.39-4.17,11.57-4.17,18.55c0,6.82,1.35,12.9,4.06,18.24c2.7,5.34,6.45,9.55,11.25,12.62
			C7284.26,7309.41,7289.71,7310.95,7295.82,7310.95z"/>
		<path class="st1" d="M7396.09,7339.85V7131.6h54.83c18.39,0,32.81,4.4,43.24,13.19c10.43,8.79,15.65,21.86,15.65,39.19
			c0,21.63-8.19,36.9-24.58,45.81c13.37,2.27,23.63,7.85,30.78,16.72c7.15,8.88,10.72,20.51,10.72,34.9
			c0,12.2-2.51,22.66-7.54,31.36c-5.02,8.71-12.17,15.4-21.45,20.07s-20.25,7-32.92,7H7396.09z M7433.54,7215.91h8.69
			c10.2,0,17.99-2.29,23.36-6.88c5.37-4.58,8.06-11.17,8.06-19.75c0-8.67-2.65-15.17-7.94-19.5c-5.29-4.33-13.12-6.5-23.48-6.5
			h-8.69V7215.91z M7433.54,7308.04h18.55c11.75,0,20.58-2.33,26.49-7c5.91-4.67,8.87-11.67,8.87-21.01c0-9.25-3.03-16.39-9.1-21.39
			c-6.07-5-14.82-7.51-26.26-7.51h-18.55V7308.04z"/>
		<path class="st1" d="M7610.21,7343.89c-13.14,0-24.98-2.92-35.53-8.77c-10.55-5.85-18.9-13.92-25.04-24.23
			c-6.14-10.31-9.22-22.19-9.22-35.66c0-13.46,3.07-25.35,9.22-35.66c6.14-10.31,14.47-18.38,24.98-24.23
			c10.51-5.85,22.33-8.77,35.47-8.77c13.14,0,24.96,2.92,35.47,8.77c10.51,5.85,18.84,13.93,24.98,24.23
			c6.14,10.31,9.22,22.19,9.22,35.66c0,13.46-3.07,25.35-9.22,35.66c-6.14,10.31-14.47,18.39-24.98,24.23
			C7635.05,7340.96,7623.27,7343.89,7610.21,7343.89z M7610.21,7310.82c6.03,0,11.51-1.51,16.46-4.54
			c4.95-3.03,8.85-7.21,11.71-12.56c2.86-5.34,4.29-11.5,4.29-18.49c0-6.98-1.43-13.15-4.29-18.49c-2.86-5.34-6.76-9.53-11.71-12.56
			c-4.95-3.03-10.43-4.54-16.46-4.54c-6.11,0-11.61,1.51-16.52,4.54c-4.91,3.03-8.81,7.22-11.71,12.56
			c-2.9,5.34-4.35,11.51-4.35,18.49c0,6.99,1.45,13.15,4.35,18.49c2.9,5.34,6.8,9.53,11.71,12.56
			C7598.59,7309.3,7604.1,7310.82,7610.21,7310.82z"/>
		<path class="st1" d="M7767.05,7343.89c-13.14,0-24.98-2.92-35.53-8.77c-10.55-5.85-18.9-13.92-25.04-24.23
			c-6.14-10.31-9.22-22.19-9.22-35.66c0-13.46,3.07-25.35,9.22-35.66c6.14-10.31,14.47-18.38,24.98-24.23
			c10.51-5.85,22.33-8.77,35.47-8.77c13.14,0,24.96,2.92,35.47,8.77c10.51,5.85,18.84,13.93,24.98,24.23
			c6.14,10.31,9.22,22.19,9.22,35.66c0,13.46-3.07,25.35-9.22,35.66c-6.14,10.31-14.47,18.39-24.98,24.23
			C7791.9,7340.96,7780.11,7343.89,7767.05,7343.89z M7767.05,7310.82c6.03,0,11.51-1.51,16.46-4.54
			c4.95-3.03,8.85-7.21,11.71-12.56c2.86-5.34,4.29-11.5,4.29-18.49c0-6.98-1.43-13.15-4.29-18.49c-2.86-5.34-6.76-9.53-11.71-12.56
			c-4.95-3.03-10.43-4.54-16.46-4.54c-6.11,0-11.61,1.51-16.52,4.54c-4.91,3.03-8.81,7.22-11.71,12.56
			c-2.9,5.34-4.35,11.51-4.35,18.49c0,6.99,1.45,13.15,4.35,18.49c2.9,5.34,6.8,9.53,11.71,12.56
			C7755.44,7309.3,7760.95,7310.82,7767.05,7310.82z"/>
		<path class="st1" d="M7864.55,7339.85v-217.09h35.71v135.05l43.82-47.2h46.14l-58.08,63.36l60.75,65.88h-45.67l-46.95-51.12v51.12
			H7864.55z"/>
	</g>
</g>
</svg>
